<?xml version="1.0" encoding="UTF-8" standalone="no"?>
<!-- Created with Inkscape (http://www.inkscape.org/) -->

<svg
   version="1.1"
   id="svg870"
   width="205.54562"
   height="219.40184"
   viewBox="0 0 205.54562 219.40184"
   sodipodi:docname="drawing07B.svg"
   inkscape:version="1.1.2 (0a00cf5339, 2022-02-04)"
   xmlns:inkscape="http://www.inkscape.org/namespaces/inkscape"
   xmlns:sodipodi="http://sodipodi.sourceforge.net/DTD/sodipodi-0.dtd"
   xmlns="http://www.w3.org/2000/svg"
   xmlns:svg="http://www.w3.org/2000/svg">
  <defs
     id="defs874">
    <inkscape:path-effect
       effect="bspline"
       id="path-effect1226"
       is_visible="true"
       lpeversion="1"
       weight="33.333333"
       steps="2"
       helper_size="0"
       apply_no_weight="true"
       apply_with_weight="true"
       only_selected="false" />
    <inkscape:path-effect
       effect="bspline"
       id="path-effect1029"
       is_visible="true"
       lpeversion="1"
       weight="33.333333"
       steps="2"
       helper_size="0"
       apply_no_weight="true"
       apply_with_weight="true"
       only_selected="false" />
    <inkscape:path-effect
       effect="bspline"
       id="path-effect1226-3"
       is_visible="true"
       lpeversion="1"
       weight="33.333333"
       steps="2"
       helper_size="0"
       apply_no_weight="true"
       apply_with_weight="true"
       only_selected="false" />
    <inkscape:path-effect
       effect="bspline"
       id="path-effect1226-35"
       is_visible="true"
       lpeversion="1"
       weight="33.333333"
       steps="2"
       helper_size="0"
       apply_no_weight="true"
       apply_with_weight="true"
       only_selected="false" />
    <inkscape:path-effect
       effect="bspline"
       id="path-effect1226-3-6"
       is_visible="true"
       lpeversion="1"
       weight="33.333333"
       steps="2"
       helper_size="0"
       apply_no_weight="true"
       apply_with_weight="true"
       only_selected="false" />
    <inkscape:path-effect
       effect="bspline"
       id="path-effect1226-2"
       is_visible="true"
       lpeversion="1"
       weight="33.333333"
       steps="2"
       helper_size="0"
       apply_no_weight="true"
       apply_with_weight="true"
       only_selected="false" />
    <inkscape:path-effect
       effect="bspline"
       id="path-effect1226-3-7"
       is_visible="true"
       lpeversion="1"
       weight="33.333333"
       steps="2"
       helper_size="0"
       apply_no_weight="true"
       apply_with_weight="true"
       only_selected="false" />
    <inkscape:path-effect
       effect="bspline"
       id="path-effect1226-0"
       is_visible="true"
       lpeversion="1"
       weight="33.333333"
       steps="2"
       helper_size="0"
       apply_no_weight="true"
       apply_with_weight="true"
       only_selected="false" />
    <inkscape:path-effect
       effect="bspline"
       id="path-effect1226-3-62"
       is_visible="true"
       lpeversion="1"
       weight="33.333333"
       steps="2"
       helper_size="0"
       apply_no_weight="true"
       apply_with_weight="true"
       only_selected="false" />
    <inkscape:path-effect
       effect="bspline"
       id="path-effect1226-7"
       is_visible="true"
       lpeversion="1"
       weight="33.333333"
       steps="2"
       helper_size="0"
       apply_no_weight="true"
       apply_with_weight="true"
       only_selected="false" />
    <inkscape:path-effect
       effect="bspline"
       id="path-effect1226-3-9"
       is_visible="true"
       lpeversion="1"
       weight="33.333333"
       steps="2"
       helper_size="0"
       apply_no_weight="true"
       apply_with_weight="true"
       only_selected="false" />
    <inkscape:path-effect
       effect="bspline"
       id="path-effect1226-75"
       is_visible="true"
       lpeversion="1"
       weight="33.333333"
       steps="2"
       helper_size="0"
       apply_no_weight="true"
       apply_with_weight="true"
       only_selected="false" />
    <inkscape:path-effect
       effect="bspline"
       id="path-effect1226-3-92"
       is_visible="true"
       lpeversion="1"
       weight="33.333333"
       steps="2"
       helper_size="0"
       apply_no_weight="true"
       apply_with_weight="true"
       only_selected="false" />
    <inkscape:path-effect
       effect="bspline"
       id="path-effect1226-1"
       is_visible="true"
       lpeversion="1"
       weight="33.333333"
       steps="2"
       helper_size="0"
       apply_no_weight="true"
       apply_with_weight="true"
       only_selected="false" />
    <inkscape:path-effect
       effect="bspline"
       id="path-effect1226-3-2"
       is_visible="true"
       lpeversion="1"
       weight="33.333333"
       steps="2"
       helper_size="0"
       apply_no_weight="true"
       apply_with_weight="true"
       only_selected="false" />
  </defs>
  <sodipodi:namedview
     id="namedview872"
     pagecolor="#ffffff"
     bordercolor="#666666"
     borderopacity="1.0"
     inkscape:pageshadow="2"
     inkscape:pageopacity="0.0"
     inkscape:pagecheckerboard="0"
     showgrid="false"
     inkscape:zoom="1.002038"
     inkscape:cx="112.27119"
     inkscape:cy="116.76204"
     inkscape:window-width="1366"
     inkscape:window-height="699"
     inkscape:window-x="0"
     inkscape:window-y="0"
     inkscape:window-maximized="1"
     inkscape:current-layer="g876" />
  <g
     inkscape:groupmode="layer"
     inkscape:label="Image"
     id="g876"
     transform="translate(-112.32301,-8.682772)">
    <g
       id="g9832">
      <g
         id="g8106"
         style="stroke-width:1.00157;stroke-miterlimit:4;stroke-dasharray:none"
         transform="translate(-2.5928228)">
        <path
           style="fill:none;stroke:#000000;stroke-width:1.00157;stroke-linecap:butt;stroke-linejoin:miter;stroke-miterlimit:4;stroke-dasharray:none;stroke-opacity:1"
           d="m 197.3004,28.517702 c 1.22618,-3.75244 2.45256,-7.505489 3.42104,-10.334895 0.96848,-2.829407 1.67904,-4.735042 2.36342,-6.005683 0.68437,-1.270641 1.34229,-1.905659 1.99176,-2.3264332 0.64947,-0.420774 1.28986,-0.627103 2.0622,-0.6617539 0.77235,-0.034651 1.67608,0.1020055 2.47143,0.4446315 0.79536,0.342626 1.48232,0.8904896 2.18375,2.1051736 0.70143,1.214684 1.41794,3.095777 2.40261,6.135889 0.98467,3.040113 2.23755,7.23905 3.4901,11.436884"
           id="path1224"
           inkscape:path-effect="#path-effect1226"
           inkscape:original-d="m 197.3004,28.517702 c 1.22738,-3.752047 2.45376,-7.505095 3.67913,-11.259143 0.71159,-1.904711 1.42216,-3.810345 2.13174,-5.717018 0.65894,-0.634042 1.31686,-1.269059 1.97379,-1.9050878 0.64142,-0.2053374 1.28181,-0.4116666 1.92121,-0.6189998 0.90477,0.1376621 1.8085,0.2743188 2.71125,0.4099782 0.68799,0.5488851 1.37495,1.0967484 2.06092,1.6436224 0.71753,1.882167 1.43404,3.763259 2.14956,5.643389 1.25393,4.200108 2.5068,8.399048 3.75871,12.597072" />
        <path
           style="fill:none;stroke:#000000;stroke-width:1.00157;stroke-linecap:butt;stroke-linejoin:miter;stroke-miterlimit:4;stroke-dasharray:none;stroke-opacity:1"
           d="m 217.68671,29.311515 c 1.22618,3.75244 2.45256,7.505489 3.42104,10.334895 0.96848,2.829407 1.67904,4.735042 2.36342,6.005683 0.68437,1.270641 1.34229,1.905659 1.99176,2.326433 0.64947,0.420774 1.28986,0.627103 2.0622,0.661754 0.77235,0.03465 1.67608,-0.102006 2.47143,-0.444632 0.79536,-0.342626 1.48232,-0.890489 2.18375,-2.105173 0.70143,-1.214684 1.41794,-3.095777 2.40261,-6.135889 0.98467,-3.040113 2.23755,-7.23905 3.4901,-11.436884"
           id="path1224-6"
           inkscape:path-effect="#path-effect1226-3"
           inkscape:original-d="m 217.68671,29.311515 c 1.22738,3.752047 2.45376,7.505095 3.67913,11.259143 0.71159,1.904711 1.42216,3.810345 2.13174,5.717018 0.65894,0.634042 1.31686,1.269059 1.97379,1.905088 0.64142,0.205337 1.28181,0.411666 1.92121,0.618999 0.90477,-0.137662 1.8085,-0.274318 2.71125,-0.409978 0.68799,-0.548885 1.37495,-1.096748 2.06092,-1.643622 0.71753,-1.882167 1.43404,-3.763259 2.14956,-5.643389 1.25393,-4.200108 2.5068,-8.399048 3.75871,-12.597072" />
      </g>
      <g
         id="g8425"
         transform="translate(10.816311)">
        <path
           style="fill:none;stroke:#000000;stroke-width:1.00157;stroke-linecap:butt;stroke-linejoin:miter;stroke-miterlimit:4;stroke-dasharray:none;stroke-opacity:1"
           d="m 204.2774,160.26306 c 0.89795,-2.61178 1.79605,-5.22396 2.50528,-7.19327 0.70923,-1.96931 1.22959,-3.29566 1.73077,-4.18005 0.50119,-0.88439 0.98299,-1.32637 1.4586,-1.61922 0.47561,-0.29285 0.94458,-0.43646 1.51016,-0.46058 0.56557,-0.0241 1.22738,0.071 1.80983,0.30948 0.58246,0.23847 1.08553,0.61979 1.5992,1.46524 0.51367,0.84545 1.03838,2.15472 1.75946,4.27068 0.72109,2.11596 1.63859,5.03849 2.55584,7.96023"
           id="path1224-2"
           inkscape:path-effect="#path-effect1226-7"
           inkscape:original-d="m 204.2774,160.26306 c 0.89882,-2.61148 1.79692,-5.22366 2.69427,-7.83653 0.52111,-1.32571 1.04147,-2.65206 1.5611,-3.97913 0.48255,-0.44131 0.96435,-0.88329 1.44543,-1.32597 0.46972,-0.14292 0.93869,-0.28653 1.40693,-0.43084 0.66257,0.0958 1.32438,0.19093 1.98548,0.28536 0.50382,0.38203 1.00689,0.76335 1.50923,1.14398 0.52546,1.31002 1.05017,2.61929 1.57415,3.92789 0.91827,2.92333 1.83576,5.84586 2.75255,8.76775" />
        <path
           style="fill:none;stroke:#000000;stroke-width:1.00157;stroke-linecap:butt;stroke-linejoin:miter;stroke-miterlimit:4;stroke-dasharray:none;stroke-opacity:1"
           d="m 219.20654,160.81557 c 0.89795,2.61178 1.79605,5.22396 2.50528,7.19327 0.70923,1.96931 1.22959,3.29566 1.73077,4.18005 0.50119,0.88439 0.98299,1.32637 1.4586,1.61922 0.47561,0.29285 0.94458,0.43646 1.51016,0.46058 0.56557,0.0241 1.22738,-0.071 1.80984,-0.30947 0.58245,-0.23848 1.08552,-0.6198 1.59919,-1.46525 0.51368,-0.84544 1.03838,-2.15471 1.75946,-4.27067 0.72109,-2.11597 1.63859,-5.0385 2.55584,-7.96024"
           id="path1224-6-3"
           inkscape:path-effect="#path-effect1226-3-9"
           inkscape:original-d="m 219.20654,160.81557 c 0.89883,2.61148 1.79692,5.22366 2.69427,7.83653 0.52111,1.32571 1.04147,2.65206 1.5611,3.97913 0.48255,0.44131 0.96435,0.88329 1.44543,1.32597 0.46972,0.14292 0.93869,0.28653 1.40693,0.43084 0.66257,-0.0958 1.32438,-0.19093 1.98548,-0.28535 0.50382,-0.38204 1.00689,-0.76336 1.50924,-1.14399 0.52545,-1.31002 1.05016,-2.61928 1.57414,-3.92788 0.91827,-2.92334 1.83576,-5.84587 2.75255,-8.76776" />
        <path
           style="fill:none;stroke:#000000;stroke-width:1.00157;stroke-linecap:butt;stroke-linejoin:miter;stroke-miterlimit:4;stroke-dasharray:none;stroke-opacity:1"
           d="m 234.13568,160.26306 c 0.89795,-2.61178 1.79605,-5.22396 2.50528,-7.19327 0.70923,-1.96931 1.22959,-3.29566 1.73077,-4.18005 0.50119,-0.88439 0.983,-1.32637 1.45861,-1.61922 0.4756,-0.29285 0.94457,-0.43646 1.51015,-0.46058 0.56557,-0.0241 1.22739,0.071 1.80984,0.30948 0.58245,0.23847 1.08552,0.61979 1.59919,1.46524 0.51368,0.84544 1.03838,2.15471 1.75947,4.27067 0.72109,2.11597 1.63859,5.0385 2.55584,7.96024"
           id="path1224-97"
           inkscape:path-effect="#path-effect1226-75"
           inkscape:original-d="m 234.13568,160.26306 c 0.89883,-2.61148 1.79692,-5.22366 2.69427,-7.83653 0.52111,-1.32571 1.04147,-2.65206 1.5611,-3.97913 0.48255,-0.44131 0.96436,-0.88329 1.44543,-1.32597 0.46972,-0.14292 0.93869,-0.28653 1.40693,-0.43084 0.66257,0.0958 1.32439,0.19093 1.98548,0.28536 0.50382,0.38203 1.00689,0.76335 1.50924,1.14398 0.52545,1.31002 1.05016,2.61929 1.57415,3.92789 0.91826,2.92333 1.83576,5.84586 2.75255,8.76775" />
        <path
           style="fill:none;stroke:#000000;stroke-width:1.00157;stroke-linecap:butt;stroke-linejoin:miter;stroke-miterlimit:4;stroke-dasharray:none;stroke-opacity:1"
           d="m 249.06483,160.81557 c 0.89795,2.61178 1.79604,5.22396 2.50528,7.19327 0.70923,1.96931 1.22958,3.29566 1.73077,4.18005 0.50119,0.88439 0.98299,1.32637 1.4586,1.61922 0.47561,0.29285 0.94457,0.43646 1.51015,0.46058 0.56558,0.0241 1.22739,-0.071 1.80985,-0.30948 0.58245,-0.23847 1.08552,-0.61979 1.59919,-1.46524 0.51367,-0.84545 1.03837,-2.1547 1.75946,-4.27067 0.72109,-2.11597 1.63859,-5.0385 2.55584,-7.96024"
           id="path1224-6-36"
           inkscape:path-effect="#path-effect1226-3-92"
           inkscape:original-d="m 249.06483,160.81557 c 0.89882,2.61148 1.79691,5.22366 2.69427,7.83653 0.5211,1.32571 1.04146,2.65206 1.5611,3.97913 0.48255,0.44131 0.96435,0.88329 1.44543,1.32597 0.46972,0.14292 0.93868,0.28653 1.40692,0.43084 0.66258,-0.0958 1.32439,-0.19093 1.98548,-0.28535 0.50383,-0.38204 1.0069,-0.76336 1.50924,-1.14399 0.52546,-1.31002 1.05016,-2.61928 1.57415,-3.92788 0.91827,-2.92334 1.83576,-5.84587 2.75255,-8.76776" />
        <path
           style="fill:none;stroke:#000000;stroke-width:1.00157;stroke-linecap:butt;stroke-linejoin:miter;stroke-miterlimit:4;stroke-dasharray:none;stroke-opacity:1"
           d="m 263.99397,160.26306 c 0.89795,-2.61178 1.79604,-5.22396 2.50528,-7.19327 0.70923,-1.96931 1.22958,-3.29566 1.73077,-4.18005 0.50119,-0.88439 0.98299,-1.32637 1.4586,-1.61922 0.47561,-0.29285 0.94457,-0.43646 1.51015,-0.46058 0.56558,-0.0241 1.22739,0.071 1.80984,0.30948 0.58245,0.23847 1.08553,0.61979 1.5992,1.46524 0.51367,0.84545 1.03838,2.15472 1.75946,4.27068 0.72109,2.11596 1.63859,5.03849 2.55584,7.96023"
           id="path1224-3"
           inkscape:path-effect="#path-effect1226-1"
           inkscape:original-d="m 263.99397,160.26306 c 0.89882,-2.61148 1.79691,-5.22366 2.69427,-7.83653 0.5211,-1.32571 1.04146,-2.65206 1.5611,-3.97913 0.48255,-0.44131 0.96435,-0.88329 1.44543,-1.32597 0.46972,-0.14292 0.93868,-0.28653 1.40692,-0.43084 0.66258,0.0958 1.32439,0.19093 1.98548,0.28536 0.50383,0.38203 1.0069,0.76335 1.50924,1.14398 0.52546,1.31002 1.05017,2.61929 1.57415,3.92789 0.91827,2.92333 1.83576,5.84586 2.75255,8.76775" />
        <path
           style="fill:none;stroke:#000000;stroke-width:1.00157;stroke-linecap:butt;stroke-linejoin:miter;stroke-miterlimit:4;stroke-dasharray:none;stroke-opacity:1"
           d="m 278.92311,160.81557 c 0.89795,2.61178 1.79605,5.22396 2.50528,7.19327 0.70923,1.96931 1.22958,3.29566 1.73077,4.18005 0.50119,0.88439 0.98299,1.32637 1.4586,1.61922 0.47561,0.29285 0.94457,0.43646 1.51015,0.46058 0.56558,0.0241 1.22739,-0.071 1.80985,-0.30947 0.58245,-0.23848 1.08552,-0.6198 1.59919,-1.46525 0.51367,-0.84545 1.03837,-2.15471 1.75946,-4.27067 0.72109,-2.11597 1.63859,-5.0385 2.55584,-7.96024"
           id="path1224-6-19"
           inkscape:path-effect="#path-effect1226-3-2"
           inkscape:original-d="m 278.92311,160.81557 c 0.89882,2.61148 1.79692,5.22366 2.69427,7.83653 0.52111,1.32571 1.04146,2.65206 1.5611,3.97913 0.48255,0.44131 0.96435,0.88329 1.44543,1.32597 0.46972,0.14292 0.93868,0.28653 1.40692,0.43084 0.66258,-0.0958 1.32439,-0.19093 1.98549,-0.28535 0.50382,-0.38204 1.00689,-0.76336 1.50923,-1.14399 0.52546,-1.31002 1.05017,-2.61928 1.57415,-3.92788 0.91827,-2.92334 1.83576,-5.84587 2.75255,-8.76776" />
        <path
           style="fill:none;stroke:#000000;stroke-width:1.00157;stroke-linecap:butt;stroke-linejoin:miter;stroke-miterlimit:4;stroke-dasharray:none;stroke-opacity:1"
           d="m 114.70255,160.26306 c 0.89795,-2.61178 1.79605,-5.22396 2.50528,-7.19327 0.70923,-1.96931 1.22958,-3.29566 1.73077,-4.18005 0.50119,-0.88439 0.98299,-1.32637 1.4586,-1.61922 0.47561,-0.29285 0.94457,-0.43646 1.51015,-0.46058 0.56558,-0.0241 1.22739,0.071 1.80984,0.30948 0.58245,0.23847 1.08553,0.61979 1.5992,1.46524 0.51367,0.84545 1.03838,2.15472 1.75946,4.27068 0.72109,2.11596 1.63859,5.03849 2.55584,7.96023"
           id="path1224-9"
           inkscape:path-effect="#path-effect1226-35"
           inkscape:original-d="m 114.70255,160.26306 c 0.89882,-2.61148 1.79692,-5.22366 2.69427,-7.83653 0.5211,-1.32571 1.04146,-2.65206 1.5611,-3.97913 0.48255,-0.44131 0.96435,-0.88329 1.44543,-1.32597 0.46972,-0.14292 0.93868,-0.28653 1.40692,-0.43084 0.66258,0.0958 1.32439,0.19093 1.98548,0.28536 0.50383,0.38203 1.0069,0.76335 1.50924,1.14398 0.52546,1.31002 1.05017,2.61929 1.57415,3.92789 0.91827,2.92333 1.83576,5.84586 2.75255,8.76775" />
        <path
           style="fill:none;stroke:#000000;stroke-width:1.00157;stroke-linecap:butt;stroke-linejoin:miter;stroke-miterlimit:4;stroke-dasharray:none;stroke-opacity:1"
           d="m 129.63169,160.81557 c 0.89795,2.61178 1.79605,5.22396 2.50528,7.19327 0.70923,1.96931 1.22959,3.29566 1.73077,4.18005 0.50119,0.88439 0.98299,1.32637 1.4586,1.61922 0.47561,0.29285 0.94458,0.43646 1.51016,0.46058 0.56557,0.0241 1.22738,-0.071 1.80984,-0.30947 0.58245,-0.23848 1.08552,-0.6198 1.59919,-1.46525 0.51367,-0.84545 1.03837,-2.15471 1.75946,-4.27067 0.72109,-2.11597 1.63859,-5.0385 2.55584,-7.96024"
           id="path1224-6-1"
           inkscape:path-effect="#path-effect1226-3-6"
           inkscape:original-d="m 129.63169,160.81557 c 0.89882,2.61148 1.79692,5.22366 2.69427,7.83653 0.52111,1.32571 1.04147,2.65206 1.5611,3.97913 0.48255,0.44131 0.96435,0.88329 1.44543,1.32597 0.46972,0.14292 0.93869,0.28653 1.40693,0.43084 0.66257,-0.0958 1.32438,-0.19093 1.98548,-0.28535 0.50382,-0.38204 1.00689,-0.76336 1.50923,-1.14399 0.52546,-1.31002 1.05017,-2.61928 1.57415,-3.92788 0.91827,-2.92334 1.83576,-5.84587 2.75255,-8.76776" />
        <path
           style="fill:none;stroke:#000000;stroke-width:1.00157;stroke-linecap:butt;stroke-linejoin:miter;stroke-miterlimit:4;stroke-dasharray:none;stroke-opacity:1"
           d="m 144.56083,160.26306 c 0.89795,-2.61178 1.79605,-5.22396 2.50528,-7.19327 0.70923,-1.96931 1.22959,-3.29566 1.73077,-4.18005 0.50119,-0.88439 0.98299,-1.32637 1.4586,-1.61922 0.47561,-0.29285 0.94458,-0.43646 1.51016,-0.46058 0.56557,-0.0241 1.22738,0.071 1.80984,0.30948 0.58245,0.23847 1.08552,0.61979 1.59919,1.46524 0.51368,0.84544 1.03838,2.15472 1.75946,4.27068 0.72109,2.11596 1.63859,5.03849 2.55584,7.96023"
           id="path1224-93"
           inkscape:path-effect="#path-effect1226-2"
           inkscape:original-d="m 144.56083,160.26306 c 0.89883,-2.61148 1.79692,-5.22366 2.69427,-7.83653 0.52111,-1.32571 1.04147,-2.65206 1.5611,-3.97913 0.48255,-0.44131 0.96435,-0.88329 1.44543,-1.32597 0.46972,-0.14292 0.93869,-0.28653 1.40693,-0.43084 0.66257,0.0958 1.32438,0.19093 1.98548,0.28536 0.50382,0.38203 1.00689,0.76335 1.50924,1.14398 0.52545,1.31002 1.05016,2.61929 1.57414,3.92789 0.91827,2.92333 1.83576,5.84586 2.75255,8.76775" />
        <path
           style="fill:none;stroke:#000000;stroke-width:1.00157;stroke-linecap:butt;stroke-linejoin:miter;stroke-miterlimit:4;stroke-dasharray:none;stroke-opacity:1"
           d="m 159.48997,160.81557 c 0.89795,2.61178 1.79605,5.22396 2.50528,7.19327 0.70923,1.96931 1.22959,3.29566 1.73077,4.18005 0.50119,0.88439 0.983,1.32637 1.45861,1.61922 0.4756,0.29285 0.94457,0.43646 1.51015,0.46058 0.56557,0.0241 1.22739,-0.071 1.80984,-0.30947 0.58245,-0.23848 1.08552,-0.6198 1.59919,-1.46524 0.51368,-0.84545 1.03838,-2.15471 1.75947,-4.27068 0.72109,-2.11596 1.63859,-5.0385 2.55584,-7.96024"
           id="path1224-6-6"
           inkscape:path-effect="#path-effect1226-3-7"
           inkscape:original-d="m 159.48997,160.81557 c 0.89883,2.61148 1.79692,5.22366 2.69427,7.83653 0.52111,1.32571 1.04147,2.65206 1.5611,3.97913 0.48255,0.44131 0.96436,0.88329 1.44543,1.32597 0.46972,0.14292 0.93869,0.28653 1.40693,0.43084 0.66257,-0.0958 1.32439,-0.19093 1.98548,-0.28535 0.50382,-0.38204 1.00689,-0.76336 1.50924,-1.14399 0.52545,-1.31002 1.05016,-2.61928 1.57415,-3.92788 0.91826,-2.92334 1.83576,-5.84587 2.75255,-8.76776" />
        <path
           style="fill:none;stroke:#000000;stroke-width:1.00157;stroke-linecap:butt;stroke-linejoin:miter;stroke-miterlimit:4;stroke-dasharray:none;stroke-opacity:1"
           d="m 174.41912,160.26306 c 0.89795,-2.61178 1.79604,-5.22396 2.50528,-7.19327 0.70923,-1.96931 1.22958,-3.29566 1.73077,-4.18005 0.50119,-0.88439 0.98299,-1.32637 1.4586,-1.61922 0.47561,-0.29285 0.94457,-0.43646 1.51015,-0.46058 0.56558,-0.0241 1.22739,0.071 1.80984,0.30948 0.58245,0.23847 1.08553,0.61979 1.5992,1.46524 0.51367,0.84545 1.03837,2.15471 1.75946,4.27068 0.72109,2.11596 1.63859,5.03849 2.55584,7.96023"
           id="path1224-1"
           inkscape:path-effect="#path-effect1226-0"
           inkscape:original-d="m 174.41912,160.26306 c 0.89882,-2.61148 1.79691,-5.22366 2.69427,-7.83653 0.5211,-1.32571 1.04146,-2.65206 1.5611,-3.97913 0.48255,-0.44131 0.96435,-0.88329 1.44543,-1.32597 0.46972,-0.14292 0.93868,-0.28653 1.40692,-0.43084 0.66258,0.0958 1.32439,0.19093 1.98548,0.28536 0.50383,0.38203 1.0069,0.76335 1.50924,1.14398 0.52546,1.31002 1.05016,2.61929 1.57415,3.92789 0.91827,2.92333 1.83576,5.84586 2.75255,8.76775" />
        <path
           style="fill:none;stroke:#000000;stroke-width:1.00157;stroke-linecap:butt;stroke-linejoin:miter;stroke-miterlimit:4;stroke-dasharray:none;stroke-opacity:1"
           d="m 189.34826,160.81557 c 0.89795,2.61178 1.79605,5.22396 2.50528,7.19327 0.70923,1.96931 1.22958,3.29566 1.73077,4.18005 0.50119,0.88439 0.98299,1.32637 1.4586,1.61922 0.47561,0.29285 0.94457,0.43646 1.51015,0.46058 0.56558,0.0241 1.22739,-0.071 1.80985,-0.30948 0.58245,-0.23847 1.08552,-0.61979 1.59919,-1.46524 0.51367,-0.84545 1.03837,-2.15471 1.75946,-4.27067 0.72109,-2.11597 1.63859,-5.0385 2.55584,-7.96024"
           id="path1224-6-8"
           inkscape:path-effect="#path-effect1226-3-62"
           inkscape:original-d="m 189.34826,160.81557 c 0.89882,2.61148 1.79692,5.22366 2.69427,7.83653 0.5211,1.32571 1.04146,2.65206 1.5611,3.97913 0.48255,0.44131 0.96435,0.88329 1.44543,1.32597 0.46972,0.14292 0.93868,0.28653 1.40692,0.43084 0.66258,-0.0958 1.32439,-0.19093 1.98548,-0.28535 0.50383,-0.38204 1.0069,-0.76336 1.50924,-1.14399 0.52546,-1.31002 1.05017,-2.61928 1.57415,-3.92788 0.91827,-2.92334 1.83576,-5.84587 2.75255,-8.76776" />
      </g>
      <text
         xml:space="preserve"
         style="font-style:normal;font-variant:normal;font-weight:normal;font-stretch:normal;font-size:13.3333px;line-height:1;font-family:FreeSans;-inkscape-font-specification:FreeSans;text-align:center;letter-spacing:0px;text-anchor:middle"
         x="214.84247"
         y="65.505493"
         id="text24313-3-5-0"><tspan
           sodipodi:role="line"
           x="214.84247"
           y="65.505493"
           id="tspan27057-3-1-1"
           style="font-style:normal;font-variant:normal;font-weight:normal;font-stretch:normal;font-family:FreeSans;-inkscape-font-specification:FreeSans">Side View</tspan></text>
      <text
         xml:space="preserve"
         style="font-style:normal;font-variant:normal;font-weight:normal;font-stretch:normal;font-size:13.3333px;line-height:1;font-family:FreeSans;-inkscape-font-specification:FreeSans;text-align:center;letter-spacing:0px;text-anchor:middle"
         x="215.00247"
         y="198.13985"
         id="text24313-3-5-0-8"><tspan
           sodipodi:role="line"
           x="215.00247"
           y="198.13985"
           id="tspan27057-3-1-1-4"
           style="font-style:normal;font-variant:normal;font-weight:normal;font-stretch:normal;font-family:FreeSans;-inkscape-font-specification:FreeSans">Six Cycles</tspan></text>
      <text
         xml:space="preserve"
         style="font-style:normal;font-variant:normal;font-weight:normal;font-stretch:normal;font-size:13.3333px;line-height:1;font-family:FreeSans;-inkscape-font-specification:FreeSans;text-align:center;letter-spacing:0px;text-anchor:middle"
         x="214.84247"
         y="227.77794"
         id="text24313-3-5-0-4"><tspan
           sodipodi:role="line"
           x="214.84247"
           y="227.77794"
           id="tspan27057-3-1-1-7"
           style="font-style:normal;font-variant:normal;font-weight:normal;font-stretch:normal;font-family:FreeSans;-inkscape-font-specification:FreeSans">Side View</tspan></text>
      <text
         xml:space="preserve"
         style="font-style:normal;font-variant:normal;font-weight:normal;font-stretch:normal;font-size:13.3333px;line-height:1;font-family:FreeSans;-inkscape-font-specification:FreeSans;text-align:center;letter-spacing:0px;text-anchor:middle"
         x="214.96248"
         y="95.114189"
         id="text24313-3-5-0-7"><tspan
           sodipodi:role="line"
           x="214.96248"
           y="95.114189"
           id="tspan27057-3-1-1-5"
           style="font-style:normal;font-variant:normal;font-weight:normal;font-stretch:normal;font-family:FreeSans;-inkscape-font-specification:FreeSans">Movement of D7 and D7A as shown</tspan><tspan
           sodipodi:role="line"
           x="214.96248"
           y="108.44749"
           style="font-style:normal;font-variant:normal;font-weight:normal;font-stretch:normal;font-family:FreeSans;-inkscape-font-specification:FreeSans"
           id="tspan7758">on an oscilloscope - 1 cycle</tspan></text>
    </g>
  </g>
</svg>
