#VRML V2.0 utf8
#
# This file is converted using vrml1to2 version 1.4b
# This converter is based on June 04, 1996.
# This converter is provided by Sony.
# Later modified GDK

WorldInfo {
	title "star 7/2 antiprism"
	info  "Gravity: on"
}
Background {
	skyColor 0.1 0.3 0.5
}
NavigationInfo {
	headlight TRUE
        type "EXAMINE"
}
Transform {
	children [
		Transform {
			rotation -0.465341 0.752938 0.465341  1.85084
			children [
				DirectionalLight {
 intensity 0.75
 direction -0.5 -1 0
				}
			]
		}
		Transform {
			rotation -0.465341 0.752938 -0.465341  4.43235
			children [
				DirectionalLight {
 intensity 0.75
 direction 0.5 1 0
				}
			]
		}
		DirectionalLight {
			intensity 0.75
		}
		Transform {
			rotation 0 1 0  3.14159
			children [
				DirectionalLight {
 intensity 0.6
 direction 0 0 1
				}
			]
		}
		Transform {
			children [
				Shape {
 appearance Appearance {
 	material Material {
 		diffuseColor 0.7 0.5 0.8
 	}
 }
 geometry IndexedFaceSet {
 	coord Coordinate {
 		point [
 			1 0 0,
 			0.674671 -0.153989 0,
 			0.900969 -0.433884 0,
 			0.900969 0.433884 0,
 			0.674671 0.153989 0,
 			0.62349 0.781832 0,
 			0.541044 0.431468 0,
 			0.222521 0.974928 0,
 			0.300257 0.62349 0,
 			-0.222521 0.974928 0,
                        0 0.692021 0,
 			-0.62349 0.781832 0,
 			-0.300257 0.62349 0,
 			-0.900969 0.433884 0,
 			-0.541044 0.431468 0,
 			-1 0 0,
 			-0.674671 0.153989 0,
 			-0.900969 -0.433884 0,
 			-0.674671 -0.153989 0,
 			-0.62349 -0.781832 0,
 			-0.541044 -0.431468 0,
 			-0.222521 -0.974928 0,
 			-0.300257 -0.62349 0,
 			0.222521 -0.974928 0,
 			0 -0.692021 0,
 			0.62349 -0.781831 0,
 			0.300257 -0.62349 0,
 			0.541044 -0.431468 0
 		]
 	}
 	coordIndex [
 		0, 1, 2, -1,
 		3, 4, 0, -1,
 		5, 6, 3, -1,
 		7, 8, 5, -1,
 		9, 10, 7, -1,
 		11, 12, 9, -1,
 		13, 14, 11, -1,
 		15, 16, 13, -1,
 		17, 18, 15, -1,
 		19, 20, 17, -1,
 		21, 22, 19, -1,
 		23, 24, 21, -1,
 		25, 26, 23, -1,
 		2, 27, 25, -1
 	]
 	normalPerVertex FALSE
 	solid           FALSE
 	creaseAngle     0.5
 }
					}
Anchor {
   url "../personal.html#geometry"
   description "Geometry and the Imagination"
	children [

DEF ROOF Shape {
 appearance Appearance {
 	material Material {
 		diffuseColor 1 1 0.5
 	}
 }
 geometry IndexedFaceSet {
 	coord Coordinate {
 		point [
 			0 0 1.2218,
 			1 0 0.6109,
 			0.62349 0.300257 0.6109,
 			0.62349 0.781832 0.6109,
 			0.153989 0.674671 0.6109,
 			-0.222521 0.974928 0.6109,
 			-0.431468 0.541044 0.6109,
 			-0.900969 0.433884 0.6109,
 			-0.692021 0 0.6109,
 			-0.900969 -0.433884 0.6109,
 			-0.431468 -0.541044 0.6109,
 			-0.222521 -0.974928 0.6109,
 			0.153989 -0.674671 0.6109,
 			0.62349 -0.781831 0.6109,
 			0.62349 -0.300257 0.6109
 		]
 	}
 	coordIndex [
 		0, 1, 2, -1,
 		0, 2, 3, -1,
 		0, 3, 4, -1,
 		0, 4, 5, -1,
 		0, 5, 6, -1,
 		0, 6, 7, -1,
 		0, 7, 8, -1,
 		0, 8, 9, -1,
 		0, 9, 10, -1,
 		0, 10, 11, -1,
 		0, 11, 12, -1,
 		0, 12, 13, -1,
 		0, 13, 14, -1,
 		0, 14, 1, -1
 	]
 	normalPerVertex FALSE
 	solid           FALSE
 	creaseAngle     0.5
 }
				}
]
} # end anchor geometry
				Shape {
 appearance Appearance {
 	material Material {
 		diffuseColor 0.5 0.8 0.6
 	}
 }
 geometry IndexedFaceSet {
 	coord Coordinate {
 		point [
 			0 0 0.1,
 			0.900969 0.433884 0,
 			0.431468 0.541044 0,
 			0.222521 0.974928 0,
 			-0.153989 0.674671 0,
 			-0.62349 0.781832 0,
 			-0.62349 0.300257 0,
 			-1 0 0,
 			-0.62349 -0.300257 0,
 			-0.62349 -0.781832 0,
 			-0.153989 -0.674671 0,
 			0.222521 -0.974928 0,
 			0.431469 -0.541044 0,
 			0.900969 -0.433884 0,
 			0.692021 0 0
 		]
 	}
 	coordIndex [
 		0, 1, 2, -1,
 		0, 2, 3, -1,
 		0, 3, 4, -1,
 		0, 4, 5, -1,
 		0, 5, 6, -1,
 		0, 6, 7, -1,
 		0, 7, 8, -1,
 		0, 8, 9, -1,
 		0, 9, 10, -1,
 		0, 10, 11, -1,
 		0, 11, 12, -1,
 		0, 12, 13, -1,
 		0, 13, 14, -1,
 		0, 14, 1, -1
 	]
 	normalPerVertex FALSE
 	solid           FALSE
 	creaseAngle     0.5
 }
				}
Anchor {
	url "../personal.html#sermons"
	description "sermons on the evils of capitalism"
	children[
				Shape {
 appearance Appearance {
 	material Material {
 		diffuseColor 1 0 0
 	}
 }
 geometry IndexedFaceSet {
 	coord Coordinate {
 		point [
 			1 0 0.6109,
 			0.692021 0 0,
 			0.900969 -0.433884 0,
 			0.62349 -0.300257 0.6109,
 			0.62349 0.300257 0.6109,
 			0.900969 0.433884 0
 		]
 	}
 	coordIndex [
 		0, 1, 2, 3, -1,
 		0, 4, 5, 1, -1
 	]
 	normalPerVertex FALSE
 	solid           FALSE
 	creaseAngle     0.5
 }
				}
]} #end anchor
Anchor {
	url "../personal.html#ancestry"
	description "ancestry and chronology"
	children[
				Shape {
 appearance Appearance {
 	material Material {
 		diffuseColor 1 0.5 0
 	}
 }
 geometry IndexedFaceSet {
 	coord Coordinate {
 		point [
 			0.62349 0.781832 0.6109,
 			0.431468 0.541044 0,
 			0.900969 0.433884 0,
 			0.62349 0.300257 0.6109,
 			0.153989 0.674671 0.6109,
 			0.222521 0.974928 0
 		]
 	}
 	coordIndex [
 		0, 1, 2, 3, -1,
 		0, 4, 5, 1, -1
 	]
 	normalPerVertex FALSE
 	solid           FALSE
 	creaseAngle     0.5
 }
				}
]} #end anchor
Anchor {
	url "../personal.html#temperament"
	description "temperamental & Myers-Briggs"
	children[
				Shape {
 appearance Appearance {
 	material Material {
 		diffuseColor 1 1 0
 	}
 }
 geometry IndexedFaceSet {
 	coord Coordinate {
 		point [
 			-0.222521 0.974928 0.6109,
 			-0.153989 0.674671 0,
 			0.222521 0.974928 0,
 			0.153989 0.674671 0.6109,
 			-0.431468 0.541044 0.6109,
 			-0.62349 0.781832 0
 		]
 	}
 	coordIndex [
 		0, 1, 2, 3, -1,
 		0, 4, 5, 1, -1
 	]
 	normalPerVertex FALSE
 	solid           FALSE
 	creaseAngle     0.5
 }
				}
]} #end anchor
Anchor {
	url "../personal.html#travels"
	description "travels in the world"
	children[
				Shape {
 appearance Appearance {
 	material Material {
 		diffuseColor 0 1 0
 	}
 }
 geometry IndexedFaceSet {
 	coord Coordinate {
 		point [
 			-0.900969 0.433884 0.6109,
 			-0.62349 0.300257 0,
 			-0.62349 0.781832 0,
 			-0.431468 0.541044 0.6109,
 			-0.692021 0 0.6109,
 			-1 0 0
 		]
 	}
 	coordIndex [
 		0, 1, 2, 3, -1,
 		0, 4, 5, 1, -1
 	]
 	normalPerVertex FALSE
 	solid           FALSE
 	creaseAngle     0.5
 }
				}
]} #end anchor
Anchor {
	url "../personal.html#music"
	description "music and singing"
	children[
				Shape {
 appearance Appearance {
 	material Material {
 		diffuseColor 0 0.8 1
 	}
 }
 geometry IndexedFaceSet {
 	coord Coordinate {
 		point [
 			-0.900969 -0.433884 0.6109,
 			-0.62349 -0.300257 0,
 			-1 0 0,
 			-0.692021 0 0.6109,
 			-0.431468 -0.541044 0.6109,
 			-0.62349 -0.781832 0
 		]
 	}
 	coordIndex [
 		0, 1, 2, 3, -1,
 		0, 4, 5, 1, -1
 	]
 	normalPerVertex FALSE
 	solid           FALSE
 	creaseAngle     0.5
 }
				}
]} #end anchor
Anchor {
	url "../personal.html#spiritual"
	description "spirituality, not religion"
	children[
				Shape {
 appearance Appearance {
 	material Material {
 		diffuseColor 0 0 0.3
 	}
 }
 geometry IndexedFaceSet {
 	coord Coordinate {
 		point [
 			-0.222521 -0.974928 0.6109,
 			-0.153989 -0.674671 0,
 			-0.62349 -0.781832 0,
 			-0.431468 -0.541044 0.6109,
 			0.153989 -0.674671 0.6109,
 			0.222521 -0.974928 0
 		]
 	}
 	coordIndex [
 		0, 1, 2, 3, -1,
 		0, 4, 5, 1, -1
 	]
 	normalPerVertex FALSE
 	solid           FALSE
 	creaseAngle     0.5
 }
				}
]} #end anchor
Anchor {
	url "../personal.html#political"
	description "politics: economic and identity"
	children[
				Shape {
 appearance Appearance {
 	material Material {
 		diffuseColor 0.5 0 1
 	}
 }
 geometry IndexedFaceSet {
 	coord Coordinate {
 		point [
 			0.62349 -0.781831 0.6109,
 			0.431469 -0.541044 0,
 			0.222521 -0.974928 0,
 			0.153989 -0.674671 0.6109,
 			0.62349 -0.300257 0.6109,
 			0.900969 -0.433884 0
 		]
 	}
 	coordIndex [
 		0, 1, 2, 3, -1,
 		0, 4, 5, 1, -1
 	]
 	normalPerVertex FALSE
 	solid           FALSE
 	creaseAngle     0.5
 }
				}
]} #end anchor
Anchor {
	url "../personal.html#homegarden"
	description "home and the garden"
	children[
				Shape {
 appearance Appearance {
 	material Material {
 		diffuseColor 0 0 0
 	}
 }
 geometry IndexedLineSet {
 	coord Coordinate {
 		point [
 			1 0 0.6109,
 			0.62349 0.781832 0.6109,
 			-0.222521 0.974928 0.6109,
 			-0.900969 0.433884 0.6109,
 			-0.900969 -0.433884 0.6109,
 			-0.222521 -0.974928 0.6109,
 			0.62349 -0.781831 0.6109
 		]
 	}
 	coordIndex [
 		0, 1, -1,
 		1, 2, -1,
 		2, 3, -1,
 		3, 4, -1,
 		4, 5, -1,
 		5, 6, -1,
 		6, 0, -1
 	]
 }
				}
]} 
				Shape {
 appearance Appearance {
 	material Material {
 		diffuseColor 1 1 1
 	}
 }
 geometry IndexedLineSet {
 	coord Coordinate {
 		point [
 			1 0 0.6109,
 			-0.222521 0.974928 0.6109,
 			0.62349 0.781832 0.6109,
 			-0.900969 0.433884 0.6109,
 			-0.900969 -0.433884 0.6109,
 			-0.222521 -0.974928 0.6109,
 			0.62349 -0.781831 0.6109
 		]
 	}
 	coordIndex [
 		0, 1, -1,
 		2, 3, -1,
 		1, 4, -1,
 		3, 5, -1,
 		4, 6, -1,
 		5, 0, -1,
 		6, 2, -1
 	]
 }
				}
				Shape {
 appearance Appearance {
 	material Material {
 		diffuseColor 1 0 1
 	}
 }
 geometry IndexedLineSet {
 	coord Coordinate {
 		point [
 			1 0 0.6109,
 			0.692021 0 0,
 			0.62349 0.781832 0.6109,
 			0.431468 0.541044 0,
 			-0.222521 0.974928 0.6109,
 			-0.153989 0.674671 0,
 			-0.900969 0.433884 0.6109,
 			-0.62349 0.300257 0,
 			-0.900969 -0.433884 0.6109,
 			-0.62349 -0.300257 0,
 			-0.222521 -0.974928 0.6109,
 			-0.153989 -0.674671 0,
 			0.62349 -0.781831 0.6109,
 			0.431469 -0.541044 0
 		]
 	}
 	coordIndex [
 		0, 1, -1,
 		2, 3, -1,
 		4, 5, -1,
 		6, 7, -1,
 		8, 9, -1,
 		10, 11, -1,
 		12, 13, -1
 	]
 }
				}
				Shape {
 appearance Appearance {
 	material Material {
 		diffuseColor 0 1 0
 	}
 }
 geometry IndexedLineSet {
 	coord Coordinate {
 		point [
 			0.62349 0.300257 0.6109,
 			0.900969 0.433884 0,
 			0.153989 0.674671 0.6109,
 			0.222521 0.974928 0,
 			-0.431468 0.541044 0.6109,
 			-0.62349 0.781832 0,
 			-0.692021 0 0.6109,
 			-1 0 0,
 			-0.431468 -0.541044 0.6109,
 			-0.62349 -0.781832 0,
 			0.153989 -0.674671 0.6109,
 			0.222521 -0.974928 0,
 			0.62349 -0.300257 0.6109,
 			0.900969 -0.433884 0
 		]
 	}
 	coordIndex [
 		0, 1, -1,
 		2, 3, -1,
 		4, 5, -1,
 		6, 7, -1,
 		8, 9, -1,
 		10, 11, -1,
 		12, 13, -1
 	]
}
				}
			]
		}
	]
}
