#VRML V2.0 utf8

WorldInfo {
	title "nonagonal_anti_prism"
	info  "Gravity: on"
}
Background {
	skyColor 0.1 0.3 1
}
NavigationInfo {
	headlight TRUE
}
Transform {
	children [
		Transform {
			rotation -0.465341 0.752938 0.465341  1.85084
			children [
DirectionalLight {
	intensity 0.75
	direction -0.5 -1 0
}
			]
		}
		Transform {
			rotation -0.465341 0.752938 -0.465341  4.43235
			children [
DirectionalLight {
	intensity 0.75
	direction 0.5 1 0
}
			]
		}
		DirectionalLight {
			intensity 0.75
		}
		Transform {
			rotation 0 1 0  3.14159
			children [
DirectionalLight {
	intensity 0.6
	direction 0 0 1
}
			]
		}
Transform {
	children [
			Shape {
appearance Appearance {
material Material {
diffuseColor 1 0.3 1
}
			}
	geometry IndexedFaceSet {
		coord Coordinate {
	point [
1.000000 0.000000 0.000000, 
0.766044 0.642788 0.000000, 
0.173648 0.984808 0.000000, 
-0.500000 0.866025 0.000000, 
-0.939693 0.342020 0.000000, 
-0.939693 -0.342020 0.000000, 
-0.500000 -0.866025 0.000000, 
0.173648 -0.984808 0.000000, 
0.766044 -0.642788 0.000000, 
0.692021 0.000000 0.000000, 
0.530119 0.444823 0.000000, 
0.120168 0.681508 0.000000, 
-0.346011 0.599308 0.000000, 
-0.650288 0.236685 0.000000, 
-0.650288 -0.236685 0.000000, 
-0.346011 -0.599308 0.000000, 
0.120168 -0.681508 0.000000, 
0.530119 -0.444823 0.000000, 
1.000000 0.000000 0.6180340, 
0.766044 0.642788 0.6180340, 
0.173648 0.984808 0.6180340, 
-0.500000 0.866025 0.6180340, 
-0.939693 0.342020 0.6180340, 
-0.939693 -0.342020 0.6180340, 
-0.500000 -0.866025 0.6180340, 
0.173648 -0.984808 0.6180340, 
0.766044 -0.642788 0.6180340, 
0.692021 0.000000 0.6180340, 
0.530119 0.444823 0.6180340, 
0.120168 0.681508 0.6180340, 
-0.346011 0.599308 0.6180340, 
-0.650288 0.236685 0.6180340, 
-0.650288 -0.236685 0.6180340, 
-0.346011 -0.599308 0.6180340, 
0.120168 -0.681508 0.6180340, 
0.530119 -0.444823 0.6180340, 
0.120168 0.681508 0.6180340, 
0., 0.,-1.,
0., 0., 2. ]
}
coordIndex [
0, 3, 21, 18, -1,
3, 6, 24, 21, -1,
6, 0, 18, 24, -1,
0, 3, 37, -1
3, 6, 37, -1,
6, 0, 37, -1,
18, 21, 38,-1,
21,24,38,-1,
24,18,38,-1,
		]
		normalPerVertex FALSE
		solid           FALSE
		creaseAngle     0.5
	}
}
			Shape {
appearance Appearance {
material Material {
diffuseColor 0.3 1  1
}
			}
	geometry IndexedFaceSet {
		coord Coordinate {
	point [
1.000000 0.000000 0.000000, 
0.766044 0.642788 0.000000, 
0.173648 0.984808 0.000000, 
-0.500000 0.866025 0.000000, 
-0.939693 0.342020 0.000000, 
-0.939693 -0.342020 0.000000, 
-0.500000 -0.866025 0.000000, 
0.173648 -0.984808 0.000000, 
0.766044 -0.642788 0.000000, 
0.692021 0.000000 0.000000, 
0.530119 0.444823 0.000000, 
0.120168 0.681508 0.000000, 
-0.346011 0.599308 0.000000, 
-0.650288 0.236685 0.000000, 
-0.650288 -0.236685 0.000000, 
-0.346011 -0.599308 0.000000, 
0.120168 -0.681508 0.000000, 
0.530119 -0.444823 0.000000, 
1.000000 0.000000 0.6180340, 
0.766044 0.642788 0.6180340, 
0.173648 0.984808 0.6180340, 
-0.500000 0.866025 0.6180340, 
-0.939693 0.342020 0.6180340, 
-0.939693 -0.342020 0.6180340, 
-0.500000 -0.866025 0.6180340, 
0.173648 -0.984808 0.6180340, 
0.766044 -0.642788 0.6180340, 
0.692021 0.000000 0.6180340, 
0.530119 0.444823 0.6180340, 
0.120168 0.681508 0.6180340, 
-0.346011 0.599308 0.6180340, 
-0.650288 0.236685 0.6180340, 
-0.650288 -0.236685 0.6180340, 
-0.346011 -0.599308 0.6180340, 
0.120168 -0.681508 0.6180340, 
0.530119 -0.444823 0.6180340, 
0.120168 0.681508 0.6180340, 
0., 0.,-1.,
0., 0.,2.,
]
}
coordIndex [
1, 4, 22, 19, -1,
4, 7, 25, 22, -1,
7, 1, 19, 25, -1,
1, 4, 37, -1
4, 7, 37, -1,
7, 1, 37, -1,
19, 22, 38,-1,
22,25,38,-1,
25,19,38,-1,
			]
		normalPerVertex FALSE
		solid           FALSE
		creaseAngle     0.5
	}
}
			Shape {
appearance Appearance {
material Material {
diffuseColor 1 1 0.3
}
			}
	geometry IndexedFaceSet {
		coord Coordinate {
	point [
1.000000 0.000000 0.000000, 
0.766044 0.642788 0.000000, 
0.173648 0.984808 0.000000, 
-0.500000 0.866025 0.000000, 
-0.939693 0.342020 0.000000, 
-0.939693 -0.342020 0.000000, 
-0.500000 -0.866025 0.000000, 
0.173648 -0.984808 0.000000, 
0.766044 -0.642788 0.000000, 
0.692021 0.000000 0.000000, 
0.530119 0.444823 0.000000, 
0.120168 0.681508 0.000000, 
-0.346011 0.599308 0.000000, 
-0.650288 0.236685 0.000000, 
-0.650288 -0.236685 0.000000, 
-0.346011 -0.599308 0.000000, 
0.120168 -0.681508 0.000000, 
0.530119 -0.444823 0.000000, 
1.000000 0.000000 0.6180340, 
0.766044 0.642788 0.6180340, 
0.173648 0.984808 0.6180340, 
-0.500000 0.866025 0.6180340, 
-0.939693 0.342020 0.6180340, 
-0.939693 -0.342020 0.6180340, 
-0.500000 -0.866025 0.6180340, 
0.173648 -0.984808 0.6180340, 
0.766044 -0.642788 0.6180340, 
0.692021 0.000000 0.6180340, 
0.530119 0.444823 0.6180340, 
0.120168 0.681508 0.6180340, 
-0.346011 0.599308 0.6180340, 
-0.650288 0.236685 0.6180340, 
-0.650288 -0.236685 0.6180340, 
-0.346011 -0.599308 0.6180340, 
0.120168 -0.681508 0.6180340, 
0.530119 -0.444823 0.6180340, 
0.120168 0.681508 0.6180340, 
0., 0.,-1.,
0., 0., 2.,
]
}
coordIndex [
2, 5, 23, 20, -1,
5, 8, 26, 23, -1,
8, 2, 20, 26, -1,
2, 5, 37, -1
5, 8, 37, -1,
8, 2, 37, -1,
20, 23, 38,-1,
23,26,38,-1,
26,20,38,-1,
		]
		normalPerVertex FALSE
		solid           FALSE
		creaseAngle     0.5
	}
}
Shape {
	appearance Appearance {
		material Material {
diffuseColor 0.5 0.5 0.5
		}
	}
	geometry IndexedFaceSet {
		coord Coordinate {
	point [
1.000000 0.000000 0.6180340, 
0.766044 0.642788 0.6180340, 
0.173648 0.984808 0.6180340, 
-0.500000 0.866025 0.6180340, 
-0.939693 0.342020 0.6180340, 
-0.939693 -0.342020 0.6180340, 
-0.500000 -0.866025 0.6180340, 
0.173648 -0.984808 0.6180340, 
0.766044 -0.642788 0.6180340, 
0.692021 0.000000 0.6180340, 
0.530119 0.444823 0.6180340, 
0.120168 0.681508 0.6180340, 
-0.346011 0.599308 0.6180340, 
-0.650288 0.236685 0.6180340, 
-0.650288 -0.236685 0.6180340, 
-0.346011 -0.599308 0.6180340, 
0.120168 -0.681508 0.6180340, 
0.530119 -0.444823 0.6180340, 
1.000000 0.000000 0.000000, 
0.766044 0.642788 0.000000, 
0.173648 0.984808 0.000000, 
-0.500000 0.866025 0.000000, 
-0.939693 0.342020 0.000000, 
-0.939693 -0.342020 0.000000, 
-0.500000 -0.866025 0.000000, 
0.173648 -0.984808 0.000000, 
0.766044 -0.642788 0.000000, 
0.692021 0.000000 0.000000, 
0.530119 0.444823 0.000000, 
0.120168 0.681508 0.000000, 
-0.346011 0.599308 0.000000, 
-0.650288 0.236685 0.000000, 
-0.650288 -0.236685 0.000000, 
-0.346011 -0.599308 0.000000, 
0.120168 -0.681508 0.000000, 
0.530119 -0.444823 0.000000, 
]		}
		coordIndex [
		0, 1,2,3,4,5,6,7,8, -1,
                18,19,20,21,22,23,24,25,26, -1,
		]
		normalPerVertex FALSE
		solid           FALSE
		creaseAngle     0.5
	}
             }

			]
		}
	]
}
